<svg xmlns="http://www.w3.org/2000/svg" viewBox="0 0 256 256" width="256" height="256">
	<path fill="currentColor" d="m58 200c-27.7 0-50-22.3-50-50 0-27.6 22.4-50 50-50 27.7 0 50 22.4 50 50 0 27.7-22.4 50-50 50zm0 0c-27.7 0-50-22.3-50-50 0-27.6 22.4-50 50-50 27.7 0 50 22.4 50 50 0 27.7-22.4 50-50 50zm140 0c-27.6 0-50-22.3-50-50 0-27.6 22.4-50 50-50 27.7 0 50 22.4 50 50 0 27.7-22.4 50-50 50zm0 0c-27.6 0-50-22.3-50-50 0-27.6 22.4-50 50-50 27.7 0 50 22.4 50 50 0 27.7-22.4 50-50 50zm-105-39c-27.7 0-50-22.3-50-50 0-27.6 22.4-50 50-50 27.7 0 50 22.4 50 50 0 27.7-22.4 50-50 50zm0 0c-27.7 0-50-22.3-50-50 0-27.6 22.4-50 50-50 27.7 0 50 22.4 50 50 0 27.7-22.4 50-50 50zm68-23c-27.7 0-50-22.3-50-50 0-27.6 22.4-50 50-50 27.7 0 50 22.4 50 50 0 27.7-22.4 50-50 50zm0 0c-27.7 0-50-22.3-50-50 0-27.6 22.4-50 50-50 27.7 0 50 22.4 50 50 0 27.7-22.4 50-50 50zm37-38v100h-140v-100z"/>
</svg>